<svg id="Layer_1" data-name="Layer 1" xmlns="http://www.w3.org/2000/svg" width="487.61" height="103.75" viewBox="0 0 487.61 103.75">
  <defs>
    <style>
      .cls-1 {
        fill: #111;
      }
    </style>
  </defs>
  <title>next-js-logo-freelogovectors.net</title>
  <g>
    <path class="cls-1" d="M438.19,301.74a3.28,3.28,0,0,1-2.36-.94,3,3,0,0,1-1-2.28,3,3,0,0,1,1-2.25,3.28,3.28,0,0,1,2.36-.94,3.24,3.24,0,0,1,2.31.94,3,3,0,0,1,1,2.25,3.06,3.06,0,0,1-.47,1.62,3.28,3.28,0,0,1-1.21,1.16A3.16,3.16,0,0,1,438.19,301.74Z" transform="translate(-6.19 -198.13)"/>
    <path class="cls-1" d="M459.58,271.42h5.56v21.09a9.65,9.65,0,0,1-1.27,5,8.3,8.3,0,0,1-3.5,3.21,11.51,11.51,0,0,1-5.2,1.12,12.1,12.1,0,0,1-4.88-.95,7.76,7.76,0,0,1-3.43-2.8,8,8,0,0,1-1.27-4.63h5.57a4.05,4.05,0,0,0,.55,2.1,3.56,3.56,0,0,0,1.48,1.34,4.83,4.83,0,0,0,2.19.47,4.4,4.4,0,0,0,2.28-.55,3.51,3.51,0,0,0,1.42-1.63,6.39,6.39,0,0,0,.5-2.67Z" transform="translate(-6.19 -198.13)"/>
    <path class="cls-1" d="M488,279.67a3.94,3.94,0,0,0-1.77-3,7,7,0,0,0-4.05-1.08,8.11,8.11,0,0,0-3,.51,4.51,4.51,0,0,0-1.92,1.4,3.37,3.37,0,0,0-.68,2,2.91,2.91,0,0,0,.45,1.63,3.74,3.74,0,0,0,1.21,1.16,8.06,8.06,0,0,0,1.7.8,19.15,19.15,0,0,0,1.89.54l2.9.71a19.44,19.44,0,0,1,3.37,1.07,11.64,11.64,0,0,1,2.91,1.7,7.59,7.59,0,0,1,2,2.47,7.32,7.32,0,0,1,.76,3.4,7.87,7.87,0,0,1-1.39,4.63,9.12,9.12,0,0,1-4,3.12,18.43,18.43,0,0,1-12.57,0,9.21,9.21,0,0,1-4.14-3.15,9.09,9.09,0,0,1-1.6-5.07h5.5a4.53,4.53,0,0,0,1,2.61,5.39,5.39,0,0,0,2.28,1.55,9.27,9.27,0,0,0,3.16.51,8.81,8.81,0,0,0,3.21-.54,5,5,0,0,0,2.16-1.49,3.43,3.43,0,0,0,.8-2.24,2.86,2.86,0,0,0-.71-1.95,5.43,5.43,0,0,0-1.93-1.29,21.79,21.79,0,0,0-2.91-.93l-3.51-.87a14.22,14.22,0,0,1-6-2.9,6.5,6.5,0,0,1-2.21-5.16,7.57,7.57,0,0,1,1.49-4.64,9.76,9.76,0,0,1,4-3.1,14.54,14.54,0,0,1,5.81-1.1,14,14,0,0,1,5.77,1.1,9.41,9.41,0,0,1,3.9,3.06,7.74,7.74,0,0,1,1.46,4.49Z" transform="translate(-6.19 -198.13)"/>
    <path class="cls-1" d="M345.86,198.17h89V214.6H399.55V301H381.9V214.6h-36Z" transform="translate(-6.19 -198.13)"/>
    <path class="cls-1" d="M199.49,198.17V214.6H128.15V241h57.37v16.43H128.15v27.14h71.34V301h-89V214.6h0V198.17Z" transform="translate(-6.19 -198.13)"/>
    <path class="cls-1" d="M243.93,198.21h-23.1l82.75,102.85h23.16l-41.37-51.39,41.31-51.38-23.1,0-29.78,37Z" transform="translate(-6.19 -198.13)"/>
    <path class="cls-1" d="M267.64,271.68l-11.57-14.39-35.31,43.85h23.17Z" transform="translate(-6.19 -198.13)"/>
    <path class="cls-1" d="M111.12,301,28.26,198.13H6.19V301H23.85V220.11L88.94,301Z" transform="translate(-6.19 -198.13)"/>
  </g>
</svg>
